# xmcd
#
# Track frame offsets:
#	183
#	14613
#	33123
#	49755
#	64293
#	76100
#	89118
#	103035
#	118605
#	135018
#	151938
#	161343
#	176543
#	193088
#	206918
#	222668
#	235668
#	249623
#	268948
#	282425
#	292958
#
# Disc length: 4098 seconds
#
# Revision: 13
# Processed by: cddbd v1.5.2PL0 Copyright (c) Steve Scherf et al.
# Submitted via: EZCDAudioConverter 2.1.7.1
#
DISCID=31100015
DTITLE=Sonny and Cher - The Beat Goes On
DYEAR=1991
DGENRE=
TTITLE0=Sonny and Cher - Baby Don't Go
TTITLE1=Sonny and Cher - Just You
TTITLE2=Sonny and Cher - Sing C'est La Vie
TTITLE3=Sonny and Cher - I Got You Babe
TTITLE4=Sonny and Cher - Why Don't They Let Us Fall In Love
TTITLE5=Sonny - Laugh At Me
TTITLE6=Sonny and Cher - But You're Mine
TTITLE7=Sonny - The Revolution Kind
TTITLE8=Sonny and Cher - What Now My Love
TTITLE9=Sonny and Cher - Have I Stayed Too Long
TTITLE10=Sonny and Cher - Leave Me Be
TTITLE11=Sonny and Cher - Little Man
TTITLE12=Sonny and Cher - Living For You
TTITLE13=Sonny and Cher - Love Don't Come
TTITLE14=Sonny and Cher - The Beat Goes On
TTITLE15=Sonny and Cher - Beautiful Story
TTITLE16=Sonny and Cher - It's The Little Things
TTITLE17=Sonny - My Best Friend's Girl Is Out Of Sight
TTITLE18=Sonny and Cher - Good Combination
TTITLE19=Sonny and Cher - I Got You Babe [''Good Times'' Soundtrack Version]
TTITLE20=Sonny and Cher - Hello
EXTD=
EXTT0=
EXTT1=
EXTT2=
EXTT3=
EXTT4=
EXTT5=
EXTT6=
EXTT7=
EXTT8=
EXTT9=
EXTT10=
EXTT11=
EXTT12=
EXTT13=
EXTT14=
EXTT15=
EXTT16=
EXTT17=
EXTT18=
EXTT19=
EXTT20=
PLAYORDER=
